<?xml version="1.0" encoding="utf-8"?>
<!-- Generator: Adobe Illustrator 17.0.0, SVG Export Plug-In . SVG Version: 6.00 Build 0)  -->
<!DOCTYPE svg PUBLIC "-//W3C//DTD SVG 1.1//EN" "http://www.w3.org/Graphics/SVG/1.1/DTD/svg11.dtd">
<svg version="1.1" id="Layer_1" xmlns="http://www.w3.org/2000/svg" xmlns:xlink="http://www.w3.org/1999/xlink" x="0px" y="0px"
	 width="512px" height="512px" viewBox="0 0 512 512" enable-background="new 0 0 512 512" xml:space="preserve">
<g>
	<path fill="#58595B" d="M170.851,264.746c-0.836-0.836-1.788-1.487-2.855-1.957c-1.071-0.47-2.233-0.705-3.486-0.705
		c-1.253,0-2.427,0.235-3.523,0.705c-1.096,0.47-2.06,1.121-2.897,1.957c-0.836,0.832-1.487,1.788-1.957,2.855
		c-0.47,1.071-0.705,2.233-0.705,3.486v28.496c0,0.313,0.119,0.602,0.354,0.861c0.235,0.264,0.532,0.391,0.898,0.391h2.505
		c0.367,0,0.667-0.128,0.902-0.391c0.235-0.26,0.35-0.548,0.35-0.861v-28.496c0-1.096,0.391-2.035,1.174-2.818
		c0.783-0.783,1.747-1.174,2.897-1.174c1.096,0,2.035,0.391,2.818,1.174s1.174,1.722,1.174,2.818v28.496
		c0,0.313,0.119,0.602,0.354,0.861c0.235,0.264,0.532,0.391,0.898,0.391h2.505c0.367,0,0.667-0.128,0.902-0.391
		c0.235-0.26,0.35-0.548,0.35-0.861v-28.496c0-1.253-0.235-2.414-0.705-3.486C172.338,266.534,171.687,265.578,170.851,264.746z"/>
	<path fill="#58595B" d="M195.432,264.824c-0.836-0.836-1.788-1.487-2.855-1.957c-1.071-0.47-2.233-0.705-3.486-0.705
		c-1.253,0-2.427,0.235-3.523,0.705c-1.096,0.47-2.06,1.121-2.897,1.957c-0.836,0.832-1.487,1.788-1.957,2.855
		c-0.47,1.071-0.705,2.233-0.705,3.486v28.417c0,0.836,0.416,1.253,1.253,1.253h2.505c0.836,0,1.253-0.416,1.253-1.253v-15.579
		h8.063v15.579c0,0.836,0.416,1.253,1.253,1.253h2.505c0.836,0,1.253-0.416,1.253-1.253v-28.417c0-1.253-0.235-2.414-0.705-3.486
		C196.92,266.612,196.269,265.656,195.432,264.824z M193.084,278.994h-8.063v-7.828c0-1.096,0.391-2.035,1.174-2.818
		c0.783-0.783,1.747-1.174,2.897-1.174c1.096,0,2.035,0.391,2.818,1.174c0.783,0.783,1.174,1.722,1.174,2.818V278.994z"/>
	<path fill="#58595B" d="M214.769,262.084h-12.056c-0.836,0-1.253,0.416-1.253,1.253v2.505c0,0.832,0.416,1.253,1.253,1.253h3.523
		v32.488c0,0.313,0.119,0.602,0.354,0.861c0.235,0.264,0.532,0.391,0.898,0.391h2.505c0.367,0,0.667-0.128,0.902-0.391
		c0.235-0.26,0.35-0.548,0.35-0.861v-32.488h3.523c0.836,0,1.253-0.42,1.253-1.253v-2.505
		C216.021,262.5,215.605,262.084,214.769,262.084z"/>
	<path fill="#58595B" d="M238.571,262.084h-2.505c-0.836,0-1.253,0.416-1.253,1.253v28.417c0,1.15-0.391,2.114-1.174,2.897
		c-0.783,0.783-1.722,1.174-2.818,1.174c-1.15,0-2.114-0.391-2.897-1.174c-0.783-0.783-1.174-1.747-1.174-2.897v-28.417
		c0-0.836-0.416-1.253-1.253-1.253h-2.505c-0.313,0-0.602,0.115-0.861,0.35c-0.264,0.235-0.391,0.536-0.391,0.902v28.417
		c0,1.253,0.235,2.427,0.705,3.523c0.47,1.096,1.121,2.06,1.957,2.897c0.836,0.836,1.801,1.487,2.897,1.957
		c1.096,0.47,2.27,0.705,3.523,0.705s2.414-0.235,3.486-0.705c1.067-0.47,2.019-1.121,2.855-1.957
		c0.836-0.836,1.487-1.801,1.957-2.897s0.705-2.27,0.705-3.523v-28.417C239.824,262.5,239.408,262.084,238.571,262.084z"/>
	<path fill="#58595B" d="M261.315,264.746c-0.812-0.836-1.763-1.487-2.859-1.957c-1.096-0.47-2.27-0.705-3.523-0.705h-6.498
		c-0.729,0-1.331,0.235-1.801,0.705c-0.47,0.47-0.705,1.067-0.705,1.801v34.993c0,0.313,0.119,0.602,0.354,0.861
		c0.235,0.264,0.532,0.391,0.898,0.391h2.505c0.313,0,0.602-0.128,0.861-0.391c0.26-0.26,0.391-0.548,0.391-0.861v-15.657h3.993
		c1.096,0,2.035,0.391,2.818,1.174c0.783,0.783,1.174,1.722,1.174,2.818v11.664c0,0.313,0.119,0.602,0.354,0.861
		c0.235,0.264,0.531,0.391,0.898,0.391h2.505c0.367,0,0.667-0.128,0.902-0.391c0.235-0.26,0.35-0.548,0.35-0.861v-11.664
		c0-2.608-0.915-4.775-2.74-6.498c1.825-1.722,2.74-3.914,2.74-6.576v-3.758c0-1.253-0.235-2.414-0.705-3.486
		C262.761,266.534,262.123,265.578,261.315,264.746z M258.925,274.845c0,1.145-0.391,2.114-1.174,2.897
		c-0.783,0.783-1.722,1.174-2.818,1.174h-3.993v-11.821h3.993c1.096,0,2.035,0.391,2.818,1.174c0.783,0.783,1.174,1.722,1.174,2.818
		V274.845z"/>
	<path fill="#58595B" d="M285.855,264.824c-0.836-0.836-1.788-1.487-2.855-1.957c-1.071-0.47-2.233-0.705-3.486-0.705
		c-1.253,0-2.427,0.235-3.523,0.705c-1.096,0.47-2.06,1.121-2.897,1.957c-0.836,0.832-1.487,1.788-1.957,2.855
		c-0.47,1.071-0.705,2.233-0.705,3.486v28.417c0,0.836,0.416,1.253,1.253,1.253h2.505c0.836,0,1.253-0.416,1.253-1.253v-15.579
		h8.063v15.579c0,0.836,0.416,1.253,1.253,1.253h2.505c0.836,0,1.253-0.416,1.253-1.253v-28.417c0-1.253-0.235-2.414-0.705-3.486
		C287.343,266.612,286.692,265.656,285.855,264.824z M283.507,278.994h-8.063v-7.828c0-1.096,0.391-2.035,1.174-2.818
		s1.747-1.174,2.897-1.174c1.096,0,2.035,0.391,2.818,1.174s1.174,1.722,1.174,2.818V278.994z"/>
	<path fill="#58595B" d="M306.757,295.825h-6.732v-32.488c0-0.367-0.132-0.667-0.391-0.902c-0.26-0.235-0.548-0.35-0.861-0.35
		h-2.505c-0.836,0-1.253,0.416-1.253,1.253v34.993c0,0.68,0.235,1.265,0.705,1.759c0.47,0.499,1.071,0.746,1.801,0.746h9.238
		c0.367,0,0.667-0.128,0.902-0.391c0.235-0.26,0.35-0.548,0.35-0.861v-2.505C308.01,296.241,307.594,295.825,306.757,295.825z"/>
	<path fill="#58595B" d="M353.497,264.746c-0.832-0.836-1.801-1.487-2.897-1.957c-1.096-0.47-2.27-0.705-3.523-0.705
		c-1.253,0-2.439,0.247-3.56,0.742c-1.125,0.499-2.101,1.187-2.938,2.077c-0.836-0.89-1.813-1.578-2.934-2.077
		c-1.125-0.494-2.311-0.742-3.564-0.742s-2.427,0.235-3.523,0.705c-1.096,0.47-2.06,1.121-2.897,1.957
		c-0.836,0.832-1.487,1.788-1.957,2.855c-0.47,1.071-0.705,2.233-0.705,3.486v28.496c0,0.313,0.128,0.602,0.391,0.861
		c0.26,0.264,0.548,0.391,0.861,0.391h2.505c0.367,0,0.667-0.128,0.902-0.391c0.235-0.26,0.35-0.548,0.35-0.861v-28.496
		c0-1.096,0.391-2.035,1.174-2.818c0.783-0.783,1.747-1.174,2.897-1.174c1.096,0,2.035,0.391,2.818,1.174
		c0.783,0.783,1.174,1.722,1.174,2.818v28.496c0,0.313,0.119,0.602,0.354,0.861c0.235,0.264,0.532,0.391,0.898,0.391h2.505
		c0.367,0,0.667-0.128,0.902-0.391c0.235-0.26,0.35-0.548,0.35-0.861v-28.496c0-1.096,0.391-2.035,1.174-2.818
		c0.783-0.783,1.722-1.174,2.818-1.174c1.15,0,2.114,0.391,2.897,1.174s1.174,1.722,1.174,2.818v28.496
		c0,0.313,0.119,0.602,0.354,0.861c0.235,0.264,0.536,0.391,0.898,0.391h2.505c0.367,0,0.667-0.128,0.902-0.391
		c0.235-0.26,0.35-0.548,0.35-0.861v-28.496c0-1.253-0.235-2.414-0.705-3.486C354.985,266.534,354.334,265.578,353.497,264.746z"/>
	<path fill="#58595B" d="M378.079,264.824c-0.836-0.836-1.788-1.487-2.855-1.957c-1.071-0.47-2.233-0.705-3.486-0.705
		c-1.253,0-2.427,0.235-3.523,0.705c-1.096,0.47-2.06,1.121-2.897,1.957c-0.836,0.832-1.487,1.788-1.957,2.855
		c-0.47,1.071-0.705,2.233-0.705,3.486v28.417c0,0.836,0.416,1.253,1.253,1.253h2.505c0.836,0,1.253-0.416,1.253-1.253v-15.579
		h8.063v15.579c0,0.836,0.416,1.253,1.253,1.253h2.505c0.836,0,1.253-0.416,1.253-1.253v-28.417c0-1.253-0.235-2.414-0.705-3.486
		C379.566,266.612,378.915,265.656,378.079,264.824z M375.73,278.994h-8.063v-7.828c0-1.096,0.391-2.035,1.174-2.818
		s1.747-1.174,2.897-1.174c1.096,0,2.035,0.391,2.818,1.174s1.174,1.722,1.174,2.818V278.994z"/>
	<path fill="#58595B" d="M402.582,264.746c-0.836-0.836-1.788-1.487-2.855-1.957c-1.071-0.47-2.233-0.705-3.486-0.705
		s-2.427,0.235-3.523,0.705c-1.096,0.47-2.048,1.121-2.855,1.957c-0.812,0.832-1.45,1.788-1.92,2.855
		c-0.47,1.071-0.705,2.233-0.705,3.486v20.745c0,1.253,0.235,2.414,0.705,3.482c0.47,1.071,1.108,2.023,1.92,2.859
		c0.808,0.836,1.759,1.487,2.855,1.957c1.096,0.47,2.27,0.705,3.523,0.705s2.414-0.235,3.486-0.705
		c1.067-0.47,2.019-1.121,2.855-1.957c0.836-0.836,1.487-1.788,1.957-2.859c0.47-1.067,0.705-2.229,0.705-3.482v-2.897
		c0-0.836-0.416-1.253-1.253-1.253h-2.505c-0.836,0-1.253,0.416-1.253,1.253v2.897c0,1.096-0.391,2.035-1.174,2.818
		c-0.783,0.783-1.722,1.174-2.818,1.174s-2.035-0.391-2.818-1.174c-0.783-0.783-1.174-1.722-1.174-2.818v-20.745
		c0-1.096,0.391-2.035,1.174-2.818c0.783-0.783,1.722-1.174,2.818-1.174s2.035,0.391,2.818,1.174
		c0.783,0.783,1.174,1.722,1.174,2.818v2.662c0,0.832,0.416,1.253,1.253,1.253h2.505c0.836,0,1.253-0.42,1.253-1.253v-2.662
		c0-1.253-0.235-2.414-0.705-3.486C404.069,266.534,403.418,265.578,402.582,264.746z"/>
	<path fill="#58595B" d="M427.711,262.084h-2.505c-0.313,0-0.602,0.115-0.861,0.35c-0.26,0.235-0.391,0.536-0.391,0.902v15.579
		h-7.985v-15.579c0-0.836-0.416-1.253-1.253-1.253h-2.505c-0.836,0-1.253,0.416-1.253,1.253v36.246c0,0.836,0.416,1.253,1.253,1.253
		h2.505c0.836,0,1.253-0.416,1.253-1.253v-15.657h7.985v15.657c0,0.367,0.132,0.663,0.391,0.898c0.26,0.235,0.548,0.354,0.861,0.354
		h2.505c0.836,0,1.253-0.416,1.253-1.253v-36.246C428.964,262.5,428.548,262.084,427.711,262.084z"/>
	<path fill="#58595B" d="M439.219,262.084h-2.505c-0.836,0-1.253,0.416-1.253,1.253v36.246c0,0.836,0.416,1.253,1.253,1.253h2.505
		c0.836,0,1.253-0.416,1.253-1.253v-36.246c0-0.367-0.132-0.667-0.391-0.902C439.821,262.2,439.532,262.084,439.219,262.084z"/>
	<path fill="#58595B" d="M462.391,264.746c-0.836-0.836-1.788-1.487-2.855-1.957c-1.071-0.47-2.233-0.705-3.486-0.705
		s-2.427,0.235-3.523,0.705c-1.096,0.47-2.06,1.121-2.897,1.957c-0.836,0.832-1.487,1.788-1.957,2.855
		c-0.47,1.071-0.705,2.233-0.705,3.486v28.496c0,0.313,0.12,0.602,0.354,0.861c0.235,0.264,0.532,0.391,0.898,0.391h2.505
		c0.367,0,0.667-0.128,0.902-0.391c0.235-0.26,0.35-0.548,0.35-0.861v-28.496c0-1.096,0.391-2.035,1.174-2.818
		c0.783-0.783,1.747-1.174,2.897-1.174c1.096,0,2.035,0.391,2.818,1.174c0.783,0.783,1.174,1.722,1.174,2.818v28.496
		c0,0.313,0.119,0.602,0.354,0.861c0.235,0.264,0.532,0.391,0.898,0.391h2.505c0.367,0,0.667-0.128,0.902-0.391
		c0.235-0.26,0.35-0.548,0.35-0.861v-28.496c0-1.253-0.235-2.414-0.705-3.486C463.879,266.534,463.228,265.578,462.391,264.746z"/>
	<path fill="#58595B" d="M483.372,262.084h-9.316c-0.729,0-1.331,0.235-1.801,0.705c-0.47,0.47-0.705,1.067-0.705,1.801v33.741
		c0,0.68,0.235,1.265,0.705,1.759c0.47,0.499,1.071,0.746,1.801,0.746h9.316c0.836,0,1.253-0.416,1.253-1.253v-2.505
		c0-0.836-0.416-1.253-1.253-1.253h-6.811v-11.899h6.811c0.836,0,1.253-0.416,1.253-1.253v-2.505c0-0.836-0.416-1.253-1.253-1.253
		h-6.811v-11.821h6.811c0.836,0,1.253-0.42,1.253-1.253v-2.505C484.624,262.5,484.208,262.084,483.372,262.084z"/>
	<path fill="#58595B" d="M502.242,275.001h2.505c0.836,0,1.253-0.42,1.253-1.253v-2.662c0-1.253-0.235-2.414-0.705-3.486
		c-0.47-1.067-1.121-2.023-1.957-2.855c-0.836-0.836-1.788-1.487-2.855-1.957c-1.071-0.47-2.233-0.705-3.486-0.705
		c-1.253,0-2.414,0.235-3.482,0.705c-1.071,0.47-2.023,1.121-2.859,1.957c-0.836,0.832-1.487,1.788-1.957,2.855
		c-0.47,1.071-0.705,2.233-0.705,3.486c0,0.626,0.012,1.121,0.041,1.487c0.025,0.363,0.087,0.705,0.194,1.018
		c0.103,0.313,0.284,0.651,0.548,1.018c0.26,0.363,0.626,0.861,1.096,1.487l10.882,14.404c0.103,0.157,0.169,0.288,0.198,0.391
		c0.025,0.103,0.037,0.416,0.037,0.939c0,1.096-0.391,2.035-1.174,2.818c-0.783,0.783-1.722,1.174-2.818,1.174
		c-1.096,0-2.035-0.391-2.818-1.174s-1.174-1.722-1.174-2.818v-2.662c0-0.836-0.416-1.253-1.253-1.253h-2.505
		c-0.836,0-1.253,0.416-1.253,1.253v2.662c0,1.253,0.235,2.414,0.705,3.482c0.47,1.071,1.121,2.023,1.957,2.859
		c0.836,0.836,1.788,1.487,2.859,1.957c1.067,0.47,2.229,0.705,3.482,0.705c1.253,0,2.414-0.235,3.486-0.705
		c1.067-0.47,2.019-1.121,2.855-1.957c0.836-0.836,1.487-1.788,1.957-2.859c0.47-1.067,0.705-2.229,0.705-3.482
		c0-0.626-0.012-1.121-0.037-1.487c-0.029-0.367-0.095-0.705-0.198-1.018c-0.103-0.313-0.288-0.651-0.548-1.018
		c-0.26-0.367-0.626-0.861-1.096-1.487l-10.882-14.404c-0.103-0.157-0.169-0.288-0.194-0.391c-0.029-0.107-0.041-0.42-0.041-0.939
		c0-1.096,0.391-2.035,1.174-2.818s1.722-1.174,2.818-1.174c1.096,0,2.035,0.391,2.818,1.174c0.783,0.783,1.174,1.722,1.174,2.818
		v2.662C500.99,274.581,501.406,275.001,502.242,275.001z"/>
	<path fill="#58595B" d="M106.793,238.706c-6.584,0-12.599,2.674-17.09,6.967c-4.393-4.293-10.408-6.967-17.083-6.967
		c-7.317,0-13.901,3.226-18.426,8.339c0.068,0.068,0.118,0.153,0.185,0.222c-4.76-4.893-11.153-8.119-18.462-8.479l0.478-1.331
		c0,0,6.189,3.655,12.534,1.43c6.354-2.221,14.124-6.506,17.297-17.449c0,0,1.904-4.602,5.076-7.458c0,0-8.405-3.49-19.67-2.699
		c-11.273,0.791-17.931,9.518-18.566,19.831c0,0,8.57-12.056,26.658-15.389c0,0-19.052,9.065-27.383,23.127
		c-0.527,0.041-1.047,0.099-1.566,0.173c-6.008-8.323-17.046-13.584-17.046-13.584c12.068,2.221,17.779,10.268,17.779,10.268
		c-0.42-6.885-4.862-12.707-12.386-13.234C11.612,221.941,6,224.273,6,224.273c2.118,1.904,3.387,4.973,3.387,4.973
		c2.118,7.309,7.305,10.165,11.533,11.644c0.692,0.243,1.376,0.371,2.044,0.433C12.774,246.106,6,256.959,6,268.825v31.887h14.986
		v-31.887c0-7.635,5.538-14.99,13.555-14.99c8.026,0,13.556,7.355,13.556,14.99v31.887h14.998v-31.887
		c0-0.978-0.047-1.949-0.138-2.91l0.212-2.479c0-5.253,4.194-9.547,9.452-9.547c5.249,0,9.543,4.294,9.543,9.547v37.33h15.179
		v-37.33c0-5.253,4.203-9.547,9.452-9.547c5.249,0,9.551,4.294,9.551,9.547v37.33h15.179v-37.33
		C131.523,249.781,120.448,238.706,106.793,238.706z M61.976,260.583c0.014,0.051,0.022,0.104,0.036,0.155
		C61.999,260.686,61.99,260.634,61.976,260.583z M57.428,250.933c0.083,0.119,0.158,0.241,0.24,0.361
		C57.587,251.174,57.511,251.05,57.428,250.933z M60.101,255.523c0.049,0.105,0.09,0.214,0.138,0.32
		C60.191,255.737,60.15,255.628,60.101,255.523z"/>
</g>
</svg>
